{
  "source": "C:\\Users\\Peter\\Desktop\\stuff\\MIUN\\quantitative_research\\video_compression\\videos\\BVI-HD\\BVI-HD_CDVL_videos\\ORIG\\Grass_1920x1080_60fps.mp4",
  "output": "C:\\Users\\Peter\\Desktop\\stuff\\MIUN\\quantitative_research\\video_compression\\compressed_videos\\BVI-HD\\vp9\\1\\Grass_1920x1080_60fps_vp9.webm",
  "codec": "vp9",
  "ok": "Input #0, mov,mp4,m4a,3gp,3g2,mj2, from 'C:\\Users\\Peter\\Desktop\\stuff\\MIUN\\quantitative_research\\video_compression\\videos\\BVI-HD\\BVI-HD_CDVL_videos\\ORIG\\Grass_1920x1080_60fps.mp4':\n  Metadata:\n    major_brand     : isom\n    minor_version   : 512\n    compatible_brands: isomiso2avc1mp41\n    encoder         : Lavf54.28.101\n  Duration: 00:00:05.00, start: 0.000000, bitrate: 655968 kb/s\n  Stream #0:0[0x1](und): Video: h264 (High 4:4:4 Predictive) (avc1 / 0x31637661), yuv420p(progressive), 1920x1080, 655963 kb/s, 60 fps, 60 tbr, 60 tbn (default)\n    Metadata:\n      handler_name    : VideoHandler\n      vendor_id       : [0][0][0][0]\n[out#0/webm @ 000002aaefc793c0] Codec AVOption b:a (set bitrate (in bits/s)) has not been used for any stream. The most likely reason is either wrong type (e.g. a video option with no video streams) or that it is a private option of some decoder which was not actually used for any stream.\nStream mapping:\n  Stream #0:0 -> #0:0 (h264 (native) -> vp9 (libvpx-vp9))\nPress [q] to stop, [?] for help\n[libvpx-vp9 @ 000002aaf08a0300] v1.15.2-100-g40561f514\nOutput #0, webm, to 'C:\\Users\\Peter\\Desktop\\stuff\\MIUN\\quantitative_research\\video_compression\\compressed_videos\\BVI-HD\\vp9\\1\\Grass_1920x1080_60fps_vp9.webm':\n  Metadata:\n    major_brand     : isom\n    minor_version   : 512\n    compatible_brands: isomiso2avc1mp41\n    encoder         : Lavf62.3.100\n  Stream #0:0(und): Video: vp9, yuv420p(tv, progressive), 1920x1080, q=2-31, 1000 kb/s, 60 fps, 1k tbn (default)\n    Metadata:\n      encoder         : Lavc62.11.100 libvpx-vp9\n      handler_name    : VideoHandler\n      vendor_id       : [0][0][0][0]\n    Side data:\n      cpb: bitrate max/min/avg: 0/0/0 buffer size: 1000000 vbv_delay: N/A\nframe=    0 fps=0.0 q=0.0 size=       0KiB time=N/A bitrate=N/A speed=N/A elapsed=0:00:00.50    \nframe=    0 fps=0.0 q=0.0 size=       0KiB time=N/A bitrate=N/A speed=N/A elapsed=0:00:01.06    \nframe=    5 fps=3.1 q=55.0 size=       1KiB time=00:00:00.08 bitrate=  60.8kbits/s speed=0.0512x elapsed=0:00:01.62    \nframe=   10 fps=4.7 q=63.0 size=       1KiB time=00:00:00.16 bitrate=  30.4kbits/s speed=0.0778x elapsed=0:00:02.14    \nframe=   14 fps=5.2 q=53.0 size=       1KiB time=00:00:00.23 bitrate=  21.7kbits/s speed=0.0869x elapsed=0:00:02.68    \nframe=   19 fps=5.9 q=63.0 size=       1KiB time=00:00:00.31 bitrate=  16.0kbits/s speed=0.0978x elapsed=0:00:03.23    \nframe=   23 fps=6.1 q=63.0 size=       1KiB time=00:00:00.38 bitrate=  13.2kbits/s speed=0.101x elapsed=0:00:03.78    \nframe=   24 fps=5.6 q=54.0 size=       1KiB time=00:00:00.40 bitrate=  12.7kbits/s speed=0.0927x elapsed=0:00:04.31    \nframe=   29 fps=6.0 q=56.0 size=       1KiB time=00:00:00.48 bitrate=  10.5kbits/s speed= 0.1x elapsed=0:00:04.83    \nframe=   33 fps=6.1 q=55.0 size=       1KiB time=00:00:00.55 bitrate=   9.2kbits/s speed=0.102x elapsed=0:00:05.37    \nframe=   37 fps=6.3 q=52.0 size=       1KiB time=00:00:00.61 bitrate=   8.2kbits/s speed=0.104x elapsed=0:00:05.90    \nframe=   42 fps=6.5 q=63.0 size=       1KiB time=00:00:00.70 bitrate=   7.2kbits/s speed=0.109x elapsed=0:00:06.42    \nframe=   46 fps=6.6 q=62.0 size=       1KiB time=00:00:00.76 bitrate=   6.6kbits/s speed=0.11x elapsed=0:00:06.97    \nframe=   49 fps=6.5 q=48.0 size=       1KiB time=00:00:00.81 bitrate=   6.2kbits/s speed=0.109x elapsed=0:00:07.50    \nframe=   54 fps=6.7 q=63.0 size=       1KiB time=00:00:00.90 bitrate=   5.6kbits/s speed=0.112x elapsed=0:00:08.03    \nframe=   58 fps=6.8 q=63.0 size=       1KiB time=00:00:00.96 bitrate=   5.2kbits/s speed=0.113x elapsed=0:00:08.54    \nframe=   62 fps=6.8 q=57.0 size=       1KiB time=00:00:01.03 bitrate=   4.9kbits/s speed=0.114x elapsed=0:00:09.07    \nframe=   66 fps=6.9 q=63.0 size=       1KiB time=00:00:01.10 bitrate=   4.6kbits/s speed=0.114x elapsed=0:00:09.62    \nframe=   71 fps=7.0 q=55.0 size=       1KiB time=00:00:01.18 bitrate=   4.3kbits/s speed=0.116x elapsed=0:00:10.16    \nframe=   74 fps=6.9 q=56.0 size=       1KiB time=00:00:01.23 bitrate=   4.1kbits/s speed=0.115x elapsed=0:00:10.70    \nframe=   78 fps=6.9 q=63.0 size=       1KiB time=00:00:01.30 bitrate=   3.9kbits/s speed=0.116x elapsed=0:00:11.23    \nframe=   83 fps=7.0 q=55.0 size=       1KiB time=00:00:01.38 bitrate=   3.7kbits/s speed=0.117x elapsed=0:00:11.77    \nframe=   86 fps=7.0 q=54.0 size=       1KiB time=00:00:01.43 bitrate=   3.5kbits/s speed=0.117x elapsed=0:00:12.29    \nframe=   90 fps=7.0 q=63.0 size=       1KiB time=00:00:01.50 bitrate=   3.4kbits/s speed=0.117x elapsed=0:00:12.82    \nframe=   96 fps=7.2 q=63.0 size=       1KiB time=00:00:01.60 bitrate=   3.2kbits/s speed=0.12x elapsed=0:00:13.35    \nframe=   98 fps=7.0 q=54.0 size=       1KiB time=00:00:01.63 bitrate=   3.1kbits/s speed=0.117x elapsed=0:00:13.90    \nframe=  102 fps=7.1 q=63.0 size=       1KiB time=00:00:01.70 bitrate=   3.0kbits/s speed=0.118x elapsed=0:00:14.44    \nframe=  108 fps=7.2 q=63.0 size=       1KiB time=00:00:01.80 bitrate=   2.8kbits/s speed=0.12x elapsed=0:00:14.95    \nframe=  111 fps=7.2 q=55.0 size=       1KiB time=00:00:01.83 bitrate=   2.8kbits/s speed=0.118x elapsed=0:00:15.48    \nframe=  115 fps=7.2 q=53.0 size=       1KiB time=00:00:01.91 bitrate=   2.6kbits/s speed=0.12x elapsed=0:00:16.02    \nframe=  118 fps=7.1 q=61.0 size=       1KiB time=00:00:01.96 bitrate=   2.6kbits/s speed=0.119x elapsed=0:00:16.52    \nframe=  124 fps=7.3 q=63.0 size=       1KiB time=00:00:02.06 bitrate=   2.5kbits/s speed=0.121x elapsed=0:00:17.06    \nframe=  128 fps=7.3 q=63.0 size=       1KiB time=00:00:02.13 bitrate=   2.4kbits/s speed=0.121x elapsed=0:00:17.59    \nframe=  130 fps=7.2 q=55.0 size=     256KiB time=00:00:02.16 bitrate= 967.9kbits/s speed=0.12x elapsed=0:00:18.12    \nframe=  134 fps=7.2 q=63.0 size=     256KiB time=00:00:02.23 bitrate= 939.0kbits/s speed=0.12x elapsed=0:00:18.64    \nframe=  139 fps=7.3 q=58.0 size=     256KiB time=00:00:02.31 bitrate= 905.2kbits/s speed=0.121x elapsed=0:00:19.15    \nframe=  143 fps=7.3 q=59.0 size=     256KiB time=00:00:02.38 bitrate= 879.9kbits/s speed=0.121x elapsed=0:00:19.69    \nframe=  147 fps=7.3 q=63.0 size=     256KiB time=00:00:02.45 bitrate= 856.0kbits/s speed=0.121x elapsed=0:00:20.25    \nframe=  151 fps=7.3 q=63.0 size=     256KiB time=00:00:02.51 bitrate= 833.3kbits/s speed=0.121x elapsed=0:00:20.82    \nframe=  154 fps=7.2 q=55.0 size=     256KiB time=00:00:02.56 bitrate= 817.1kbits/s speed=0.12x elapsed=0:00:21.33    \nframe=  159 fps=7.3 q=63.0 size=     256KiB time=00:00:02.65 bitrate= 791.4kbits/s speed=0.121x elapsed=0:00:21.86    \nframe=  163 fps=7.3 q=63.0 size=     256KiB time=00:00:02.71 bitrate= 772.0kbits/s speed=0.121x elapsed=0:00:22.40    \nframe=  165 fps=7.2 q=53.0 size=     256KiB time=00:00:02.75 bitrate= 762.6kbits/s speed=0.12x elapsed=0:00:22.93    \nframe=  169 fps=7.2 q=63.0 size=     256KiB time=00:00:02.81 bitrate= 744.6kbits/s speed=0.12x elapsed=0:00:23.47    \nframe=  172 fps=7.2 q=52.0 size=     256KiB time=00:00:02.86 bitrate= 731.6kbits/s speed=0.119x elapsed=0:00:24.04    \nframe=  175 fps=7.1 q=63.0 size=     256KiB time=00:00:02.91 bitrate= 719.0kbits/s speed=0.119x elapsed=0:00:24.60    \nframe=  176 fps=7.0 q=49.0 size=     256KiB time=00:00:02.93 bitrate= 714.9kbits/s speed=0.116x elapsed=0:00:25.20    \nframe=  179 fps=6.9 q=58.0 size=     256KiB time=00:00:02.96 bitrate= 706.9kbits/s speed=0.115x elapsed=0:00:25.79    \nframe=  181 fps=6.9 q=61.0 size=     256KiB time=00:00:03.01 bitrate= 695.2kbits/s speed=0.114x elapsed=0:00:26.40    \nframe=  183 fps=6.8 q=63.0 size=     256KiB time=00:00:03.05 bitrate= 687.6kbits/s speed=0.113x elapsed=0:00:27.05    \nframe=  186 fps=6.7 q=56.0 size=     256KiB time=00:00:03.10 bitrate= 676.5kbits/s speed=0.112x elapsed=0:00:27.60    \nframe=  187 fps=6.6 q=62.0 size=     256KiB time=00:00:03.11 bitrate= 672.9kbits/s speed=0.111x elapsed=0:00:28.14    \nframe=  191 fps=6.7 q=59.0 size=     256KiB time=00:00:03.18 bitrate= 658.8kbits/s speed=0.111x elapsed=0:00:28.67    \nframe=  195 fps=6.7 q=63.0 size=     256KiB time=00:00:03.25 bitrate= 645.3kbits/s speed=0.111x elapsed=0:00:29.19    \nframe=  199 fps=6.7 q=63.0 size=     256KiB time=00:00:03.31 bitrate= 632.3kbits/s speed=0.111x elapsed=0:00:29.74    \nframe=  201 fps=6.6 q=53.0 size=     256KiB time=00:00:03.35 bitrate= 626.0kbits/s speed=0.11x elapsed=0:00:30.34    \nframe=  203 fps=6.6 q=59.0 size=     256KiB time=00:00:03.38 bitrate= 619.8kbits/s speed=0.109x elapsed=0:00:30.94    \nframe=  206 fps=6.5 q=55.0 size=     256KiB time=00:00:03.43 bitrate= 610.8kbits/s speed=0.109x elapsed=0:00:31.49    \nframe=  210 fps=6.6 q=54.0 size=     256KiB time=00:00:03.50 bitrate= 599.2kbits/s speed=0.109x elapsed=0:00:32.02    \nframe=  211 fps=6.5 q=63.0 size=     256KiB time=00:00:03.51 bitrate= 596.3kbits/s speed=0.108x elapsed=0:00:32.53    \nframe=  214 fps=6.5 q=54.0 size=     256KiB time=00:00:03.55 bitrate= 590.7kbits/s speed=0.107x elapsed=0:00:33.13    \nframe=  217 fps=6.4 q=62.0 size=     256KiB time=00:00:03.61 bitrate= 579.9kbits/s speed=0.107x elapsed=0:00:33.72    \nframe=  221 fps=6.4 q=63.0 size=     256KiB time=00:00:03.68 bitrate= 569.4kbits/s speed=0.107x elapsed=0:00:34.30    \nframe=  223 fps=6.4 q=63.0 size=     256KiB time=00:00:03.71 bitrate= 564.3kbits/s speed=0.106x elapsed=0:00:34.89    \nframe=  224 fps=6.3 q=48.0 size=     256KiB time=00:00:03.73 bitrate= 561.7kbits/s speed=0.105x elapsed=0:00:35.47    \nframe=  227 fps=6.3 q=57.0 size=     256KiB time=00:00:03.78 bitrate= 554.3kbits/s speed=0.105x elapsed=0:00:35.98    \nframe=  231 fps=6.3 q=63.0 size=     256KiB time=00:00:03.85 bitrate= 544.7kbits/s speed=0.105x elapsed=0:00:36.53    \nframe=  234 fps=6.3 q=53.0 size=     256KiB time=00:00:03.90 bitrate= 537.7kbits/s speed=0.105x elapsed=0:00:37.11    \nframe=  235 fps=6.2 q=62.0 size=     256KiB time=00:00:03.91 bitrate= 535.4kbits/s speed=0.104x elapsed=0:00:37.66    \nframe=  237 fps=6.2 q=54.0 size=     256KiB time=00:00:03.95 bitrate= 530.9kbits/s speed=0.103x elapsed=0:00:38.22    \nframe=  241 fps=6.2 q=62.0 size=     256KiB time=00:00:04.01 bitrate= 522.1kbits/s speed=0.104x elapsed=0:00:38.75    \nframe=  245 fps=6.2 q=63.0 size=     256KiB time=00:00:04.08 bitrate= 513.6kbits/s speed=0.104x elapsed=0:00:39.29    \nframe=  245 fps=6.2 q=63.0 size=     256KiB time=00:00:04.08 bitrate= 513.6kbits/s speed=0.103x elapsed=0:00:39.83    \nframe=  247 fps=6.1 q=53.0 size=     256KiB time=00:00:04.11 bitrate= 509.4kbits/s speed=0.102x elapsed=0:00:40.40    \nframe=  251 fps=6.1 q=60.0 size=     256KiB time=00:00:04.18 bitrate= 501.3kbits/s speed=0.102x elapsed=0:00:40.93    \nframe=  255 fps=6.1 q=63.0 size=     256KiB time=00:00:04.25 bitrate= 493.4kbits/s speed=0.102x elapsed=0:00:41.48    \nframe=  256 fps=6.1 q=53.0 size=     256KiB time=00:00:04.26 bitrate= 491.5kbits/s speed=0.101x elapsed=0:00:42.08    \nframe=  258 fps=6.0 q=63.0 size=     768KiB time=00:00:04.30 bitrate=1463.1kbits/s speed=0.101x elapsed=0:00:42.73    \nframe=  262 fps=6.1 q=59.0 size=     768KiB time=00:00:04.36 bitrate=1440.8kbits/s speed=0.101x elapsed=0:00:43.28    \nframe=  267 fps=6.1 q=55.0 size=     768KiB time=00:00:04.43 bitrate=1419.1kbits/s speed=0.101x elapsed=0:00:43.82    \nframe=  268 fps=6.0 q=59.0 size=     768KiB time=00:00:04.46 bitrate=1408.5kbits/s speed=0.101x elapsed=0:00:44.41    \nframe=  270 fps=6.0 q=54.0 size=     768KiB time=00:00:04.50 bitrate=1398.1kbits/s speed= 0.1x elapsed=0:00:44.96    \nframe=  274 fps=6.0 q=60.0 size=     768KiB time=00:00:04.56 bitrate=1377.7kbits/s speed= 0.1x elapsed=0:00:45.49    \nframe=  276 fps=6.0 q=63.0 size=     768KiB time=00:00:04.60 bitrate=1367.7kbits/s speed=0.0999x elapsed=0:00:46.06    \nframe=  276 fps=5.9 q=63.0 size=     768KiB time=00:00:04.60 bitrate=1367.7kbits/s speed=0.0986x elapsed=0:00:46.65    \nframe=  276 fps=5.9 q=63.0 size=     768KiB time=00:00:04.60 bitrate=1367.7kbits/s speed=0.0975x elapsed=0:00:47.17    \nframe=  276 fps=5.8 q=63.0 size=     768KiB time=00:00:04.60 bitrate=1367.7kbits/s speed=0.0965x elapsed=0:00:47.68    \nframe=  276 fps=5.7 q=63.0 size=     768KiB time=00:00:04.60 bitrate=1367.7kbits/s speed=0.0954x elapsed=0:00:48.23    \nframe=  276 fps=5.6 q=63.0 size=     768KiB time=00:00:04.60 bitrate=1367.7kbits/s speed=0.0942x elapsed=0:00:48.85    \nframe=  276 fps=5.6 q=63.0 size=     768KiB time=00:00:04.60 bitrate=1367.7kbits/s speed=0.093x elapsed=0:00:49.45    \nframe=  276 fps=5.5 q=63.0 size=     768KiB time=00:00:04.60 bitrate=1367.7kbits/s speed=0.092x elapsed=0:00:49.98    \nframe=  276 fps=5.5 q=63.0 size=     768KiB time=00:00:04.60 bitrate=1367.7kbits/s speed=0.0911x elapsed=0:00:50.51    \n[out#0/webm @ 000002aaefc793c0] video:1036KiB audio:0KiB subtitle:0KiB other streams:0KiB global headers:0KiB muxing overhead: 0.266390%\nframe=  300 fps=5.9 q=60.0 Lsize=    1039KiB time=00:00:05.00 bitrate=1702.5kbits/s speed=0.0985x elapsed=0:00:50.78    \n",
  "seconds": 51.31337356567383,
  "probe_out": {}
}